# xmcd CD database file generated by Grip 3.3.1
# 
# Track frame offsets:
#       150
#       7187
#       13875
#       23325
#       36175
#       45057
#       67567
#       72497
#       81087
#       100062
#       108702
#       116807
#       136187
#       150272
#       154290
#       167492
#       177870
#       183727
#       191227
#       205995
#       215645
#       224490
#       238115
# 
# Disc length: 3384 seconds
# 
# Revision: 2
# Processed by: cddbd v1.5.2PL0 Copyright (c) Steve Scherf et al.
# Submitted via: Grip 3.3.1
# 
DISCID=3e0d3617
DTITLE=The Chicage Brass Quintet - Merry Christmas
DYEAR=1988
DGENRE=Classical
TTITLE0=Joy to the World
TTITLE1=Carol of the Bells
TTITLE2=Hark the Hearld Angels Sing
TTITLE3=What Child is This
TTITLE4=When Christ Was Born
TTITLE5=Infant Jesus
TTITLE6=Christmas Bells
TTITLE7=L'Enfance du Christ
TTITLE8=Silent Night
TTITLE9=Welcome Sweet Christmas
TTITLE10=O Come O Come Emmanuel
TTITLE11=Walts of the Flowers
TTITLE12=Danse Arabe
TTITLE13=Trepak
TTITLE14=Sleigh Ride
TTITLE15=Es ist ein Ros' entsprungen
TTITLE16=Lo, How a Rose er Blooming
TTITLE17=We Wish You a Merry Christmas
TTITLE18=The First Nöel
TTITLE19=Patapan
TTITLE20=Rejoice and be Merry
TTITLE21=Jingle Bells
TTITLE22=Hallelujah Chorus
EXTD=
EXTT0=
EXTT1=
EXTT2=
EXTT3=
EXTT4=
EXTT5=
EXTT6=
EXTT7=
EXTT8=
EXTT9=
EXTT10=
EXTT11=
EXTT12=
EXTT13=
EXTT14=
EXTT15=
EXTT16=
EXTT17=
EXTT18=
EXTT19=
EXTT20=
EXTT21=
EXTT22=
PLAYORDER=
